# xmcd
# 
# Track frame offsets:
#     150
#     23484
#     36802
#     49811
#     68243
#     84022
#     97632
#     117827
#     136703
#     152026
#     167662
#     181378
#     195028
#     210415
#     226138
# 
# Disc length: 3277
# 
# Revision: 2
# Processed by: cddbd v1.5.2PL0 Copyright (c) Steve Scherf et al.
# Submitted via: fre:ac v1.0.31
# 
DISCID=a20ccb0f
DTITLE=Steven Tyler - We’re All Somebody From Somewhere
DYEAR=2016
DGENRE=Country
TTITLE0=Steven Tyler - My Own Worst Enemy
TTITLE1=Steven Tyler - We’re All Somebody From Somewhere
TTITLE2=Steven Tyler - Hold On (Won’t Let Go)
TTITLE3=Steven Tyler - It Ain’t Easy
TTITLE4=Steven Tyler - Love Is Your Name
TTITLE5=Steven Tyler - I Make My Own Sunshine
TTITLE6=Steven Tyler - Gypsy Girl
TTITLE7=Steven Tyler - Somebody New
TTITLE8=Steven Tyler - Only Heaven
TTITLE9=Steven Tyler - The Good, the Bad, the Ugly and Me
TTITLE10=Steven Tyler - Red, White and You
TTITLE11=Steven Tyler - Sweet Louisiana
TTITLE12=Steven Tyler - What Am I Doin’ Right?
TTITLE13=Steven Tyler - Janie’s Got a Gun
TTITLE14=Steven Tyler feat. The Loving Mary Band - Piece of My Heart
EXTD=
EXTT0=
EXTT1=
EXTT2=
EXTT3=
EXTT4=
EXTT5=
EXTT6=
EXTT7=
EXTT8=
EXTT9=
EXTT10=
EXTT11=
EXTT12=
EXTT13=
EXTT14=
PLAYORDER=
